<svg width="800" height="800" viewBox="0 0 800 800" fill="none" xmlns="http://www.w3.org/2000/svg">
<g clip-path="url(#clip0_1_131)">
<path d="M191.25 749.905C191.25 768.917 190.501 778.75 188.872 778.75H166.046C164.417 778.75 147.5 768.918 147.5 749.905V376.927C147.5 357.912 157.76 342.5 159.389 342.5L188.301 342.5C189.93 342.5 191.25 357.912 191.25 376.927V749.905Z" fill="#ECECEC"/>
<path d="M584.412 193.209C584.412 193.334 584.419 193.458 584.419 193.585V193.474C584.42 193.386 584.412 193.298 584.412 193.209ZM583.3 174.732C583.399 175.589 583.468 176.463 583.554 177.323C583.476 176.463 583.4 175.589 583.3 174.732ZM581.653 164.159C581.88 165.358 582.106 166.554 582.304 167.755C582.11 166.549 581.88 165.358 581.653 164.159ZM567.357 190.391V186.96C567.357 124.169 531.444 68.8164 479.95 36.1695C523.085 57.0991 557.995 93.5412 574.354 137.762C548.425 67.484 475.714 16.7802 397.514 16.7802C299.815 16.7802 207.263 95.8872 207.263 193.475V432.954H249.719V203.347C249.719 128.594 306.956 67.9989 381.787 67.9989C405.882 67.9989 421.932 74.3142 441.422 85.3307C492.588 103.395 529.256 122.109 529.256 179.4V203.94C529.256 212.071 533.718 219.262 540.567 223.728C555.491 222.756 567.357 208.228 567.357 190.391ZM584.033 182.882C584.095 183.779 584.149 184.676 584.196 185.578C584.149 184.676 584.091 183.779 584.033 182.882ZM580.015 156.376C580.33 157.698 580.608 159.03 580.9 160.362C580.615 159.03 580.33 157.696 580.015 156.376Z" fill="#ECECEC"/>
<path d="M249.719 203.347V433.062H269.113V209.511C269.113 136.839 324.756 77.926 397.513 77.926C413.101 77.926 428.048 80.6469 441.922 85.6099L441.421 85.3308C421.931 74.3142 405.883 67.999 381.786 67.999C306.956 67.999 249.719 128.594 249.719 203.347ZM584.196 185.578C584.149 184.676 584.095 183.779 584.033 182.882C583.908 181.026 583.748 179.173 583.554 177.323C583.468 176.463 583.4 175.589 583.3 174.732C583.018 172.399 582.686 170.073 582.304 167.755C582.106 166.554 581.879 165.358 581.653 164.159C581.416 162.891 581.165 161.625 580.9 160.362C580.608 159.03 580.33 157.698 580.015 156.376C579.782 155.418 579.523 154.464 579.275 153.509C578.579 150.804 577.81 148.119 576.971 145.455C576.77 144.811 576.578 144.171 576.369 143.532C575.813 141.838 575.23 140.153 574.62 138.478C574.536 138.237 574.441 138 574.355 137.762C557.995 93.5424 523.085 57.0992 479.95 36.1696C531.444 68.8164 567.357 124.169 567.357 186.96V190.391C567.357 208.227 555.491 222.755 540.568 223.728C540.521 223.73 540.474 223.741 540.425 223.745C545.014 226.779 550.68 228.594 556.839 228.594C572.072 228.594 584.42 214.041 584.42 196.089V193.585C584.42 193.458 584.413 193.334 584.413 193.209C584.403 190.664 584.33 188.119 584.196 185.578Z" fill="#A7A7A7"/>
<path d="M561.796 233.402C541.484 233.402 524.96 218.265 524.96 199.659V204.716C524.96 135.849 468.865 79.8213 399.917 79.8213C337.613 79.8213 288.118 126.935 282.231 191.846C281.79 196.69 277.502 200.253 272.657 199.82C271.504 199.716 270.383 199.386 269.358 198.849C268.333 198.312 267.424 197.579 266.683 196.691C265.942 195.803 265.383 194.778 265.038 193.675C264.693 192.571 264.57 191.41 264.674 190.259C271.406 116.064 328.283 62.2128 399.918 62.2128C478.588 62.2128 542.59 126.139 542.59 204.716V199.659C542.59 208.556 551.208 215.794 561.798 215.794C572.398 215.794 581.02 204.923 581.02 191.563V188.54C581.02 173.592 578.821 158.692 574.488 144.254C574.156 143.147 574.045 141.985 574.162 140.835C574.279 139.684 574.622 138.568 575.171 137.55C575.72 136.532 576.464 135.633 577.362 134.902C578.259 134.171 579.291 133.625 580.4 133.293C585.066 131.891 589.974 134.543 591.373 139.197C596.19 155.204 598.641 171.827 598.649 188.541V191.564C598.648 214.632 582.116 233.402 561.796 233.402Z" fill="#475569"/>
<path d="M281.654 440.674H204.685V188.539C204.685 115.083 254.007 45.1962 327.419 14.6327C329.57 13.7668 331.977 13.7829 334.116 14.6775C336.256 15.5721 337.957 17.273 338.849 19.4116C339.742 21.5502 339.754 23.954 338.884 26.1019C338.014 28.2497 336.332 29.9684 334.202 30.8854C267.279 58.7468 222.314 122.103 222.314 188.539V423.066H264.026V240.512C264.064 238.202 265.009 235.999 266.658 234.379C268.307 232.759 270.527 231.851 272.84 231.851C275.153 231.851 277.374 232.759 279.022 234.379C280.671 235.999 281.616 238.202 281.654 240.512V440.674ZM518.539 58.9232C516.591 58.925 514.698 58.2792 513.158 57.0875C480.329 31.7566 440.11 17.8066 399.917 17.8066C391.262 17.8066 382.593 18.4547 374.15 19.7346C369.355 20.4586 364.845 17.1585 364.113 12.3497C363.763 10.041 364.345 7.68781 365.731 5.80775C367.118 3.92768 369.195 2.67476 371.506 2.32455C380.91 0.906056 390.407 0.194836 399.917 0.196904C443.988 0.196904 488.033 15.4524 523.935 43.1503C525.39 44.2742 526.457 45.8247 526.986 47.5846C527.515 49.3444 527.48 51.2255 526.885 52.9643C526.29 54.7032 525.166 56.2125 523.669 57.2811C522.173 58.3496 520.379 58.9238 518.539 58.9232ZM561.629 105.147C560.166 105.149 558.726 104.787 557.438 104.093C556.15 103.399 555.056 102.397 554.253 101.175C553.27 99.6767 552.291 98.1758 551.316 96.6719C545.844 88.2466 544.002 85.409 535.537 77.4134C533.845 75.8072 532.86 73.5963 532.798 71.2658C532.736 68.9352 533.602 66.6751 535.206 64.9813C536.81 63.2875 539.02 62.2982 541.354 62.2303C543.687 62.1625 545.951 63.0217 547.651 64.6195C557.646 74.0607 560.297 78.1444 566.107 87.0905C566.972 88.4253 567.921 89.8861 568.988 91.5081C569.624 92.4746 570.062 93.5566 570.279 94.6924C570.496 95.8281 570.486 96.9954 570.251 98.1275C570.016 99.2597 569.56 100.334 568.909 101.29C568.258 102.247 567.425 103.065 566.457 103.699C565.025 104.645 563.346 105.149 561.629 105.147Z" fill="#475569"/>
<path d="M664.898 753.454C664.898 773.111 650.199 789.052 632.068 789.052H210.698C192.565 789.052 177.862 773.112 177.862 753.454V367.826C177.862 348.167 192.565 332.232 210.698 332.232H632.068C650.199 332.232 664.898 348.167 664.898 367.826V753.454Z" fill="#FDD72C"/>
<path d="M629.262 332.232H537.201C556.88 332.232 572.837 348.167 572.837 367.826V753.454C572.837 773.111 556.882 789.052 537.201 789.052H629.262C648.941 789.052 664.898 773.112 664.898 753.454V367.826C664.898 348.167 648.942 332.232 629.262 332.232Z" fill="#F97C21"/>
<path d="M307 580.662C307 585.382 308.877 589.909 312.219 593.247C315.56 596.585 320.093 598.46 324.818 598.46C329.544 598.46 334.076 596.585 337.418 593.247C340.759 589.909 342.637 585.382 342.637 580.662C342.637 575.942 340.759 571.415 337.418 568.077C334.076 564.739 329.544 562.864 324.818 562.864C320.093 562.864 315.56 564.739 312.219 568.077C308.877 571.415 307 575.942 307 580.662Z" fill="#475569"/>
<path d="M479.246 580.662C479.246 585.382 481.123 589.909 484.464 593.247C487.806 596.585 492.338 598.46 497.064 598.46C501.79 598.46 506.322 596.585 509.663 593.247C513.005 589.909 514.882 585.382 514.882 580.662C514.882 575.942 513.005 571.415 509.663 568.077C506.322 564.739 501.79 562.864 497.064 562.864C492.338 562.864 487.806 564.739 484.464 568.077C481.123 571.415 479.246 575.942 479.246 580.662Z" fill="#475569"/>
<path d="M449.212 608.2C449.504 605.567 447.326 603.41 444.67 603.41H367.816C365.166 603.41 362.99 605.567 363.278 608.2C365.664 629.793 383.989 646.591 406.248 646.591C428.504 646.59 446.83 629.793 449.212 608.2Z" fill="#475569"/>
<path d="M420.185 633.507C420.185 637.4 413.689 640.565 405.677 640.565C397.662 640.565 391.163 637.401 391.163 633.507C391.163 629.609 397.662 626.449 405.677 626.449C413.689 626.45 420.185 629.609 420.185 633.507Z" fill="#FD631F"/>
<path d="M611.443 800.371H189.741C154.016 800.371 124.951 771.34 124.951 735.657V385.624C124.951 349.941 154.016 320.912 189.741 320.912H611.443C647.167 320.912 676.23 349.941 676.23 385.624V535.415C676.23 541.667 671.156 546.735 664.897 546.735C658.637 546.735 653.563 541.667 653.563 535.415V385.624C653.563 362.424 634.668 343.551 611.442 343.551H189.741C166.513 343.551 147.617 362.424 147.617 385.624V735.657C147.617 758.857 166.513 777.732 189.741 777.732H611.443C634.67 777.732 653.565 758.857 653.565 735.657V683.734C653.565 677.482 658.638 672.414 664.898 672.414C671.157 672.414 676.231 677.482 676.231 683.734V735.657C676.23 771.34 647.168 800.371 611.443 800.371Z" fill="#475569"/>
<path d="M664.898 647.59C661.892 647.59 659.009 646.397 656.884 644.274C654.758 642.151 653.564 639.272 653.564 636.269V584.362C653.564 578.109 658.638 573.041 664.898 573.041C671.157 573.041 676.231 578.109 676.231 584.362V636.271C676.23 642.523 671.157 647.59 664.898 647.59Z" fill="#475569"/>
</g>
<defs>
<clipPath id="clip0_1_131">
<rect width="551" height="800" fill="white" transform="translate(125)"/>
</clipPath>
</defs>
</svg>
