<svg fill="none" height="600" viewBox="0 0 600 600" width="600" xmlns="http://www.w3.org/2000/svg"><g fill="#f97c21"><path d="m252.875 358.812c-29.37-29.33-29.37-76.882 0-106.212s76.99-29.33 106.36 0c11.173 11.157 18.975 34.317 24.355 58.735 8.045 36.512 12.068 54.77-2.492 69.31s-32.843 10.522-69.408 2.49c-24.45-5.373-47.642-13.165-58.815-24.323z"/><path d="m550 300c0 138.07-111.93 250-250 250-138.071 0-250-111.93-250-250 0-138.071 111.929-250 250-250 138.07 0 250 111.929 250 250z" opacity=".5"/><path d="m110.519 136.907c8.132-9.438 16.956-18.262 26.394-26.393.463.382.912.789 1.345 1.222l37.5 37.5c7.323 7.323 7.323 19.194 0 26.517-7.322 7.322-19.194 7.322-26.516 0l-37.5-37.5c-.433-.433-.841-.882-1.223-1.346z"/><path d="m50.6922 318.745c-.4587-6.188-.6922-12.44-.6922-18.745 0-6.31.2337-12.563.693-18.755h49.307c10.355 0 18.75 8.395 18.75 18.75s-8.395 18.75-18.75 18.75z"/><path d="m136.907 489.48c-9.438-8.13-18.262-16.955-26.392-26.392.383-.465.792-.916 1.227-1.351l37.5-37.5c7.322-7.322 19.194-7.322 26.516 0 7.322 7.32 7.322 19.193 0 26.515l-37.5 37.5c-.435.435-.886.846-1.351 1.228z"/><path d="m489.485 463.088c-8.13 9.437-16.955 18.262-26.393 26.392-.465-.382-.915-.793-1.35-1.228l-37.5-37.5c-7.322-7.322-7.322-19.195 0-26.515 7.323-7.322 19.193-7.322 26.515 0l37.5 37.5c.435.435.845.886 1.228 1.351z"/><path d="m549.307 281.245c.46 6.192.693 12.445.693 18.755 0 6.305-.233 12.557-.693 18.745h-49.312c-10.355 0-18.75-8.395-18.75-18.75s8.395-18.75 18.75-18.75z"/><path d="m463.087 110.514c9.438 8.131 18.263 16.955 26.393 26.393-.38.464-.788.913-1.223 1.346l-37.5 37.5c-7.322 7.322-19.192 7.322-26.515 0-7.322-7.323-7.322-19.194 0-26.517l37.5-37.5c.433-.433.88-.84 1.345-1.222z"/><path d="m318.75 50.6925v49.3075c0 10.355-8.395 18.75-18.75 18.75s-18.75-8.395-18.75-18.75v-49.3075c6.19-.459 12.443-.6925 18.75-.6925s12.56.2335 18.75.6925z"/></g></svg>