<svg fill="none" height="600" viewBox="0 0 600 600" width="600" xmlns="http://www.w3.org/2000/svg"><g fill="#f97c21"><path d="m84.438 127.06c-9.438 13.447-9.438 53.417-9.438 133.357v39.368c0 140.95 105.974 209.352 172.464 238.397 18.036 7.878 27.054 11.818 52.536 11.818s34.5-3.94 52.535-11.818c66.49-29.045 172.465-97.447 172.465-238.397v-39.368c0-79.94 0-119.91-9.438-133.357-9.437-13.447-47.02-26.311-122.185-52.0402l-14.319-4.9018c-39.183-13.412-58.773-20.118-79.058-20.118s-39.875 6.706-79.057 20.118l-14.32 4.9018c-75.165 25.7292-112.7472 38.5932-122.185 52.0402z" opacity=".5"/><path d="m376.488 262.488c6.895-7.725 6.225-19.577-1.5-26.474s-19.578-6.226-26.473 1.499l-75.3 84.335-21.727-24.335c-6.898-7.725-18.751-8.395-26.475-1.498-7.725 6.895-8.396 18.747-1.499 26.472l35.713 40.001c3.558 3.985 8.646 6.262 13.988 6.262 5.34 0 10.428-2.277 13.985-6.262z"/></g></svg>