<svg fill="none" height="600" viewBox="0 0 600 600" width="600" xmlns="http://www.w3.org/2000/svg"><g fill="#f97c21"><path d="m300 550c138.07 0 250-111.93 250-250 0-138.071-111.93-250-250-250-138.071 0-250 111.929-250 250 0 39.992 9.3905 77.79 26.0865 111.312 4.437 8.908 5.9137 19.09 3.3415 28.703l-14.8902 55.652c-6.464 24.158 15.6374 46.258 39.7962 39.795l55.651-14.89c9.613-2.572 19.795-1.095 28.703 3.34 33.521 16.698 71.319 26.088 111.312 26.088z" opacity=".5"/><path d="m187.5 277.732c0 34.21 32.971 70.105 63.215 95.833 20.595 17.522 30.895 26.282 49.285 26.282s28.69-8.76 49.285-26.282c30.245-25.728 63.215-61.623 63.215-95.833 0-66.929-61.878-91.917-112.5-40.215-50.623-51.702-112.5-26.714-112.5 40.215z"/></g></svg>