<svg fill="none" height="600" viewBox="0 0 600 600" width="600" xmlns="http://www.w3.org/2000/svg"><g fill="#f97c21"><path d="m50 300c0-117.851 0-176.777 36.6117-213.3883 36.6113-36.6117 95.5373-36.6117 213.3883-36.6117 117.85 0 176.777 0 213.387 36.6117 36.613 36.6113 36.613 95.5373 36.613 213.3883 0 117.85 0 176.777-36.613 213.387-36.61 36.613-95.537 36.613-213.387 36.613-117.851 0-176.777 0-213.3883-36.613-36.6117-36.61-36.6117-95.537-36.6117-213.387z" opacity=".5"/><path d="m337.203 161.148c10.002 2.68 15.937 12.961 13.257 22.964l-64.705 241.48c-2.68 10.003-12.962 15.94-22.965 13.26-10.002-2.682-15.937-12.962-13.257-22.965l64.705-241.481c2.68-10.003 12.962-15.939 22.965-13.258z"/><path d="m374.242 211.742c7.323-7.323 19.193-7.323 26.515 0l5.21 5.208c15.883 15.882 29.128 29.127 38.228 41.055 9.607 12.59 16.345 25.892 16.345 41.995 0 16.102-6.738 29.405-16.345 41.995-9.1 11.927-22.345 25.172-38.228 41.055l-5.21 5.207c-7.322 7.323-19.192 7.323-26.515 0-7.322-7.322-7.322-19.192 0-26.515l4.288-4.29c17.042-17.042 28.462-28.517 35.852-38.205 7.06-9.252 8.658-14.64 8.658-19.247 0-4.608-1.598-9.995-8.658-19.248-7.39-9.687-18.81-21.162-35.852-38.204l-4.288-4.29c-7.322-7.322-7.322-19.194 0-26.516z"/><path d="m199.247 211.742c7.322-7.323 19.194-7.323 26.516 0 7.322 7.322 7.322 19.194 0 26.516l-4.289 4.29c-17.042 17.042-28.461 28.517-35.852 38.204-7.061 9.253-8.657 14.64-8.657 19.248 0 4.607 1.596 9.995 8.657 19.247 7.391 9.688 18.81 21.163 35.852 38.205l4.289 4.29c7.322 7.323 7.322 19.193 0 26.515-7.322 7.323-19.194 7.323-26.516 0l-5.209-5.207c-15.884-15.883-29.128-29.128-38.229-41.055-9.606-12.59-16.344-25.893-16.344-41.995 0-16.103 6.738-29.405 16.344-41.995 9.101-11.928 22.345-25.172 38.229-41.055z"/></g></svg>