<svg fill="none" height="600" viewBox="0 0 600 600" width="600" xmlns="http://www.w3.org/2000/svg"><g fill="#f97c21"><path d="m50 300c0-117.851 0-176.777 36.6117-213.3883 36.6113-36.6117 95.5373-36.6117 213.3883-36.6117 117.85 0 176.777 0 213.387 36.6117 36.613 36.6113 36.613 95.5373 36.613 213.3883 0 117.85 0 176.777-36.613 213.387-36.61 36.613-95.537 36.613-213.387 36.613-117.851 0-176.777 0-213.3883-36.613-36.6117-36.61-36.6117-95.537-36.6117-213.387z" opacity=".5"/><path d="m263.578 187.931c7.142-7.498 6.852-19.367-.648-26.508-7.497-7.142-19.366-6.853-26.507.646l-57.851 60.744-14.994-15.744c-7.142-7.499-19.01-7.788-26.509-.646-7.499 7.141-7.788 19.009-.646 26.508l28.571 29.999c3.539 3.718 8.446 5.82 13.578 5.82 5.131 0 10.038-2.102 13.577-5.82z"/><path d="m325 206.25c-10.355 0-18.75 8.395-18.75 18.75 0 10.356 8.395 18.75 18.75 18.75h125c10.355 0 18.75-8.394 18.75-18.75 0-10.355-8.395-18.75-18.75-18.75z"/><path d="m263.578 362.93c7.142-7.498 6.852-19.365-.648-26.508-7.497-7.142-19.366-6.852-26.507.648l-57.851 60.742-14.994-15.742c-7.142-7.5-19.01-7.79-26.509-.648-7.499 7.143-7.788 19.01-.646 26.508l28.571 30c3.539 3.717 8.446 5.82 13.578 5.82 5.131 0 10.038-2.103 13.577-5.82z"/><path d="m325 381.25c-10.355 0-18.75 8.395-18.75 18.75s8.395 18.75 18.75 18.75h125c10.355 0 18.75-8.395 18.75-18.75s-8.395-18.75-18.75-18.75z"/></g></svg>