<svg fill="none" height="600" viewBox="0 0 600 600" width="600" xmlns="http://www.w3.org/2000/svg"><g fill="#f97c21"><path d="m271.17 548.355c-124.492-14.295-221.17-120.035-221.17-248.355 0-138.071 111.929-250 250-250 138.07 0 250 111.929 250 250 0 128.912-82.068 118.312-152.163 109.257-40.427-5.222-76.872-9.93-91.29 12.943-9.862 15.64.798 35.145 13.873 48.22 16.337 16.337 16.337 42.822 0 59.16-13.075 13.075-30.88 20.885-49.25 18.775z" opacity=".5"/><path d="m277.125 175c0 20.711-16.79 37.5-37.5 37.5s-37.5-16.789-37.5-37.5 16.79-37.5 37.5-37.5 37.5 16.789 37.5 37.5z"/><path d="m162.5 325.005c20.711 0 37.5-16.787 37.5-37.5 0-20.71-16.789-37.5-37.5-37.5s-37.5 16.79-37.5 37.5c0 20.713 16.789 37.5 37.5 37.5z"/><path d="m437.5 325.005c20.71 0 37.5-16.787 37.5-37.5 0-20.71-16.79-37.5-37.5-37.5s-37.5 16.79-37.5 37.5c0 20.713 16.79 37.5 37.5 37.5z"/><path d="m362.5 212.506c20.71 0 37.5-16.79 37.5-37.5 0-20.711-16.79-37.5-37.5-37.5s-37.5 16.789-37.5 37.5c0 20.71 16.79 37.5 37.5 37.5z"/></g></svg>